<svg xmlns="http://www.w3.org/2000/svg" width="99.649" height="30" viewBox="0 0 99.649 30">
  <g id="Trusted_partner" data-name="Trusted partner" transform="translate(-179.565)">
    <path id="Union" d="M57.587,1.014V3.287a.583.583,0,0,0,.594.559h5.28l-6.084,8.706a2.613,2.613,0,0,0-.385,1.538V16.4a.549.549,0,0,0,.734.524,11.567,11.567,0,0,1,10.7-.035c.384.21.734-.175.734-.524V13.951a1.042,1.042,0,0,0-.524-.874,11.393,11.393,0,0,0-5.769-1.223l5.245-7.483c.49-.7.769-1.119.769-1.434V1.014a.583.583,0,0,0-.594-.559H58.146a.532.532,0,0,0-.559.559Z" transform="translate(179.565)" fill="#4f5179"/>
    <path id="Union-2" data-name="Union" d="M17.552,17.377h3.077a.614.614,0,0,0,.629-.524V8.461q0-.082,0-.166c0-1.834,0-4.2,2.133-4.2,1.952,0,1.92,2.126,1.894,3.825,0,.188-.006.371-.006.545v8.392a.6.6,0,0,0,.559.559h3.077a.583.583,0,0,0,.594-.559V8.461c0-.08,0-.163,0-.249a8.683,8.683,0,0,1,.28-2.792,2.059,2.059,0,0,1,1.853-1.294,1.622,1.622,0,0,1,1.818,1.364,14.693,14.693,0,0,1,.077,2.423c0,.216-.007.406-.007.549v8.392a.6.6,0,0,0,.559.559h3.042a.583.583,0,0,0,.594-.559v-10c0-.255,0-.514.009-.776.027-1.5.055-3.058-.779-4.189A4.334,4.334,0,0,0,33.391.14a4.382,4.382,0,0,0-4.266,2.937C28.286,1.084,27.062.14,25.139.14a4.075,4.075,0,0,0-4.056,2.937h-.07V1.014a.57.57,0,0,0-.559-.524H17.587a.583.583,0,0,0-.594.559v15.8a.631.631,0,0,0,.559.524Z" transform="translate(179.565)" fill="#4f5179"/>
    <path id="Union-3" data-name="Union" d="M84.685,9.056c0-5-2.483-8.916-7.063-8.916-4.476,0-6.958,3.846-6.923,8.776,0,4.9,2.448,8.811,6.923,8.811C81.957,17.727,84.685,13.881,84.685,9.056Zm-9.475-.629c0-1.923.14-5.035,2.413-5.035A1.933,1.933,0,0,1,79.65,4.93a15.3,15.3,0,0,1,.455,4.2c0,2.028-.14,5.35-2.517,5.35s-2.378-4.012-2.378-5.968Z" transform="translate(179.565)" fill="#4f5179"/>
    <path id="Union-4" data-name="Union" d="M87.517,17.377h3.077a.64.64,0,0,0,.629-.559V8.286a7.258,7.258,0,0,1,.489-3.007A2.024,2.024,0,0,1,93.5,4.021c1.961,0,1.942,2.129,1.926,3.831,0,.149,0,.294,0,.435v8.6a.636.636,0,0,0,.559.489h3.077a.575.575,0,0,0,.594-.489V6.923c0-1.538,0-3.671-.8-4.93A4.071,4.071,0,0,0,95.244.14c-2.133,0-3.322,1.014-4.2,3.182h-.07V.909a.6.6,0,0,0-.559-.455H87.552a.6.6,0,0,0-.594.524V16.818A.6.6,0,0,0,87.517,17.377Z" transform="translate(179.565)" fill="#4f5179"/>
    <path id="Union-5" data-name="Union" d="M52.266,17.5a.632.632,0,0,0,.356-.153h0c.223-.186.509-.43.813-.69.553-.473,1.171-1,1.6-1.338.245-.175.21-.524,0-.8-.067-.1-.135-.191-.2-.285a3.906,3.906,0,0,1-.951-2.582V6.853c0-.16,0-.319,0-.477.01-1.845.019-3.549-1.365-4.837A6.92,6.92,0,0,0,47.868,0c-2.937,0-6.189,1.084-6.888,4.72a.538.538,0,0,0,.455.629l2.972.315c.28,0,.455-.28.524-.559a2.328,2.328,0,0,1,2.483-1.853,2.07,2.07,0,0,1,1.713.8,3.272,3.272,0,0,1,.386,1.978c0,.088,0,.175,0,.26v.385c-.29.034-.595.066-.909.1a17.522,17.522,0,0,0-4.9.984A5.234,5.234,0,0,0,40.42,12.8c0,3.182,2.028,4.79,4.615,4.79a6.127,6.127,0,0,0,5.07-2.238c.082.117.156.227.226.33a6.806,6.806,0,0,0,1.557,1.733A.632.632,0,0,0,52.266,17.5ZM49.51,10.013q0-.093,0-.188V9.161c-2.238,0-4.58.49-4.58,3.112,0,1.329.7,2.238,1.888,2.238a2.474,2.474,0,0,0,2.133-1.4A5.905,5.905,0,0,0,49.51,10.013Z" transform="translate(179.565)" fill="#4f5179"/>
    <path id="Union-6" data-name="Union" d="M11.847,17.5a.632.632,0,0,0,.356-.153h0c.223-.186.509-.43.813-.69.553-.473,1.171-1,1.6-1.338.245-.175.21-.524,0-.8-.067-.1-.135-.191-.2-.285a3.906,3.906,0,0,1-.951-2.582V6.853c0-.16,0-.319,0-.477.01-1.845.019-3.549-1.365-4.837A6.92,6.92,0,0,0,7.448,0C4.511,0,1.26,1.084.56,4.72a.538.538,0,0,0,.455.629l2.972.315c.28,0,.455-.28.524-.559A2.328,2.328,0,0,1,6.994,3.252a2.07,2.07,0,0,1,1.713.8,3.272,3.272,0,0,1,.386,1.978c0,.088,0,.175,0,.26v.385c-.29.034-.595.066-.909.1a17.522,17.522,0,0,0-4.9.984A5.234,5.234,0,0,0,0,12.8c0,3.182,2.028,4.79,4.615,4.79a6.127,6.127,0,0,0,5.07-2.238c.082.117.156.227.226.33a6.806,6.806,0,0,0,1.557,1.733A.632.632,0,0,0,11.847,17.5ZM9.126,10.013q0-.093,0-.188V9.161c-2.238,0-4.58.49-4.58,3.112,0,1.329.7,2.238,1.888,2.238a2.474,2.474,0,0,0,2.133-1.4A5.905,5.905,0,0,0,9.126,10.013Z" transform="translate(179.565)" fill="#4f5179"/>
    <path id="Union-7" data-name="Union" d="M64.23,20.7c-.734-.944-4.9-.455-6.748-.21-.559.07-.664-.42-.14-.769,3.322-2.343,8.741-1.643,9.371-.874s-.175,6.223-3.287,8.811c-.489.385-.944.175-.734-.35l.037-.091C63.444,25.427,64.951,21.661,64.23,20.7Z" transform="translate(179.565)" fill="#4f5179"/>
    <path id="Union-8" data-name="Union" d="M61.817,23.462C56.048,27.727,47.656,30,40.419,30a38.8,38.8,0,0,1-26.154-9.965c-.524-.489-.07-1.154.594-.769a52.555,52.555,0,0,0,26.154,6.923A52.035,52.035,0,0,0,60.978,22.1C61.957,21.713,62.761,22.762,61.817,23.462Z" transform="translate(179.565)" fill="#4f5179"/>
  </g>
</svg>
