<svg xmlns="http://www.w3.org/2000/svg" width="86.65" height="61.952" viewBox="0 0 86.65 61.952">
  <g id="Icon" transform="translate(-508.486 -294)">
    <g id="Group_1000001903" data-name="Group 1000001903">
      <path id="Vector_325" data-name="Vector 325" d="M16.91,0l6.5,6c-2.167,3-6.1,10.4-4.5,16,6.5.5,18.9,5.1,16.5,19.5-3,18-17.661,20.257-29,13C-6.09,46.5.91,13.5,16.91,0Z" transform="translate(510 296)" fill="none" stroke="#292938" stroke-width="3"/>
      <path id="Vector_326" data-name="Vector 326" d="M16.91,0l6.5,6c-2.167,3-6.1,10.4-4.5,16,6.5.5,18.9,5.1,16.5,19.5-3,18-17.661,20.257-29,13C-6.09,46.5.91,13.5,16.91,0Z" transform="translate(557.91 296)" fill="none" stroke="#292938" stroke-width="3"/>
    </g>
  </g>
</svg>
