<svg xmlns="http://www.w3.org/2000/svg" width="148.784" height="30" viewBox="0 0 148.784 30">
  <path id="Union" d="M42.651,16.257a5.451,5.451,0,0,0,1.566-3.049,8.908,8.908,0,0,0,.144-1.525,5.229,5.229,0,0,0-.371-1.875c-.309-.8-.721-1.236-1.216-1.339-.742-.144-1.463.268-2.143,1.277A6.662,6.662,0,0,0,39.539,12.2a7.166,7.166,0,0,0-.144,1.5,5.229,5.229,0,0,0,.371,1.875c.309.8.721,1.236,1.216,1.339A1.981,1.981,0,0,0,42.651,16.257Z" fill="#4f5179"/>
  <path id="Union-2" data-name="Union" d="M4.677,0H45.7a4.7,4.7,0,0,1,4.7,4.7V20.357a4.7,4.7,0,0,1-4.7,4.7H30.989L33.008,30l-8.88-4.945H4.7a4.7,4.7,0,0,1-4.7-4.7V4.7A4.678,4.678,0,0,1,4.677,0ZM2.514,4.265a1.658,1.658,0,0,1,1.3-.639A1.505,1.505,0,0,1,5.6,5.11q.958,6.459,2.081,10.941L12.2,7.459a1.956,1.956,0,0,1,1.545-1.236c.907-.062,1.463.515,1.69,1.731A38.49,38.49,0,0,0,17.39,15q.8-7.85,2.72-11.332a1.583,1.583,0,0,1,1.36-.907,1.79,1.79,0,0,1,1.3.412,1.614,1.614,0,0,1,.639,1.174,1.788,1.788,0,0,1-.206.989,24.946,24.946,0,0,0-2,7.438,38.371,38.371,0,0,0-.577,7.85,2.445,2.445,0,0,1-.247,1.36,1.328,1.328,0,0,1-1.092.742,2.072,2.072,0,0,1-1.628-.762A20.4,20.4,0,0,1,13.1,13.187q-2.009,3.956-2.967,5.934c-1.216,2.328-2.246,3.523-3.111,3.585-.556.041-1.03-.433-1.442-1.422q-1.576-4.049-3.4-15.639A1.84,1.84,0,0,1,2.514,4.265ZM46.813,7.5a4.745,4.745,0,0,0-3.3-2.39A5.408,5.408,0,0,0,42.4,4.986c-1.978,0-3.585,1.03-4.842,3.091a10.918,10.918,0,0,0-1.607,5.81,7.978,7.978,0,0,0,.989,4.08,4.745,4.745,0,0,0,3.3,2.39,5.408,5.408,0,0,0,1.113.124c2,0,3.606-1.03,4.842-3.091A11.041,11.041,0,0,0,47.8,11.559,7.8,7.8,0,0,0,46.813,7.5ZM30.6,5.11a4.788,4.788,0,0,1,3.3,2.39,7.8,7.8,0,0,1,.989,4.059,11.041,11.041,0,0,1-1.607,5.831c-1.236,2.06-2.843,3.091-4.842,3.091a5.408,5.408,0,0,1-1.113-.124,4.745,4.745,0,0,1-3.3-2.39,7.978,7.978,0,0,1-.989-4.08,10.918,10.918,0,0,1,1.607-5.81c1.257-2.06,2.864-3.091,4.842-3.091A5.408,5.408,0,0,1,30.6,5.11Z" fill="#4f5179"/>
  <path id="Union-3" data-name="Union" d="M53.551,12.507A6.982,6.982,0,0,1,60.824,5.3a8.606,8.606,0,0,1,2.246.268V8.9a7.7,7.7,0,0,0-2.06-.309,3.085,3.085,0,0,0-2.452,1.133,4.282,4.282,0,0,0-.968,2.885,4.321,4.321,0,0,0,.989,2.988,3.373,3.373,0,0,0,2.617,1.092,6.934,6.934,0,0,0,1.875-.309v3.338a7.763,7.763,0,0,1-2.143.33,7.155,7.155,0,0,1-5.337-2.081A7.466,7.466,0,0,1,53.551,12.507Z" fill="#4f5179"/>
  <path id="Union-4" data-name="Union" d="M65.46,7.171a5.542,5.542,0,0,1,4.451-1.9,5.834,5.834,0,0,1,4.657,1.9,8.237,8.237,0,0,1,1.607,5.44,8.512,8.512,0,0,1-1.587,5.481,5.477,5.477,0,0,1-4.512,1.957,5.6,5.6,0,0,1-4.615-1.957,8.753,8.753,0,0,1-1.587-5.625A7.928,7.928,0,0,1,65.46,7.171Zm4.451,9.684a1.83,1.83,0,0,0,1.628-.865,7.226,7.226,0,0,0,.6-3.42c0-2.74-.742-4.1-2.184-4.1-1.38,0-2.06,1.339-2.06,4.038a7.63,7.63,0,0,0,.515,3.482A1.657,1.657,0,0,0,69.911,16.855Z" fill="#4f5179"/>
  <path id="Union-5" data-name="Union" d="M85.611,8.819l.742-3.152h4.9l1.9,14.032H89.4l-1.01-9.643L86.044,19.7H83.489l-2.452-9.663L80.069,19.7H76.483L78.276,5.666h4.78c.68,3.029,1.216,5.625,1.607,7.809l.412-2.184C85.24,10.447,85.426,9.622,85.611,8.819Z" fill="#4f5179"/>
  <path id="Union-6" data-name="Union" d="M102.775,8.819l.742-3.152H108.4L110.3,19.7h-3.75l-1.01-9.643L103.207,19.7h-2.555L98.2,10.035,97.232,19.7H93.647L95.439,5.666h4.78c.68,3.029,1.216,5.625,1.607,7.809l.412-2.184C102.4,10.447,102.589,9.622,102.775,8.819Z" fill="#4f5179"/>
  <path id="Union-7" data-name="Union" d="M118.537,14.155h-3.359v2.576h3.894v2.988h-7.685V5.687h7.665V8.675h-3.874V11.25h3.359Z" fill="#4f5179"/>
  <path id="Union-8" data-name="Union" d="M130.343,9.952a3.807,3.807,0,0,1-2.287,3.42l3.029,6.326h-4l-3.07-6.387h-.062V19.7h-3.791V5.666h4.409A6.989,6.989,0,0,1,128.8,6.82,3.694,3.694,0,0,1,130.343,9.952Zm-6.408-1.587V11.7c1.669-.021,2.514-.515,2.514-1.484a1.6,1.6,0,0,0-.577-1.4A3.466,3.466,0,0,0,123.935,8.366Z" fill="#4f5179"/>
  <path id="Union-9" data-name="Union" d="M130.508,12.507a6.97,6.97,0,0,1,2.06-5.192A7.049,7.049,0,0,1,137.781,5.3a8.606,8.606,0,0,1,2.246.268V8.9a7.7,7.7,0,0,0-2.06-.309,3.085,3.085,0,0,0-2.452,1.133,4.282,4.282,0,0,0-.968,2.885,4.321,4.321,0,0,0,.989,2.988,3.374,3.374,0,0,0,2.617,1.092,6.934,6.934,0,0,0,1.875-.309v3.338a7.762,7.762,0,0,1-2.143.33,7.155,7.155,0,0,1-5.337-2.081A7.466,7.466,0,0,1,130.508,12.507Z" fill="#4f5179"/>
  <path id="Union-10" data-name="Union" d="M144.869,14.135V16.71h3.915V19.7H141.1V5.666h7.665V8.654h-3.894V11.23h3.359v2.905Z" fill="#4f5179"/>
</svg>
