<svg xmlns="http://www.w3.org/2000/svg" width="496" height="492" viewBox="0 0 496 492">
  <path id="Vector" d="M249.616-21.359C295.682-31.021,335.691-52.18,375.5-77.3c42.922-27.088,95.734-47.967,113.88-95.373,18.4-48.064-5.869-99.836-20.242-149.254-14.889-51.194-22.218-109.595-64.489-142.078-42.62-32.752-101.324-28.732-155.03-26.613-51.681,2.04-103.579,9.478-146.389,38.508-43.761,29.675-76.3,73.553-92.9,123.757-16.667,50.392-10.685,103.47.6,155.334C23.4-115.639,28.919-46.49,78.479-15,127.872,16.382,192.345-9.346,249.616-21.359Z" transform="translate(0 492)" fill="#343549"/>
</svg>
