<svg xmlns="http://www.w3.org/2000/svg" xmlns:xlink="http://www.w3.org/1999/xlink" width="66.889" height="66.884" viewBox="0 0 66.889 66.884"><defs><linearGradient id="a" x1="0.5" x2="0.5" y2="1" gradientUnits="objectBoundingBox"><stop offset="0" stop-color="#6d6d8a"/><stop offset="1" stop-color="#37374a"/></linearGradient><filter id="b" x="25.431" y="0" width="41.458" height="41.458" filterUnits="userSpaceOnUse"><feOffset dy="1.852" input="SourceAlpha"/><feGaussianBlur stdDeviation="3.148" result="c"/><feFlood flood-opacity="0.059"/><feComposite operator="in" in2="c"/><feComposite in="SourceGraphic"/></filter><filter id="e" x="0" y="8.018" width="66.889" height="58.867" filterUnits="userSpaceOnUse"><feOffset dy="1.852" input="SourceAlpha"/><feGaussianBlur stdDeviation="3.148" result="f"/><feFlood flood-opacity="0.059"/><feComposite operator="in" in2="f"/><feComposite in="SourceGraphic"/></filter><filter id="h" x="8.064" y="0" width="33.441" height="39.468" filterUnits="userSpaceOnUse"><feOffset dy="1.852" input="SourceAlpha"/><feGaussianBlur stdDeviation="3.148" result="i"/><feFlood flood-opacity="0.059"/><feComposite operator="in" in2="i"/><feComposite in="SourceGraphic"/></filter></defs><g transform="translate(9.444 7.591)"><g transform="matrix(1, 0, 0, 1, -9.44, -7.59)" filter="url(#b)"><path d="M22.569,22.569A24,24,0,0,0,0,0V22.569Z" transform="translate(34.88 7.59)" fill="url(#a)"/></g><g transform="matrix(1, 0, 0, 1, -9.44, -7.59)" filter="url(#e)"><path d="M6.074,0A24.018,24.018,0,1,0,48,17.366H23.44Z" transform="translate(9.44 15.61)" fill="url(#a)"/></g><g transform="matrix(1, 0, 0, 1, -9.44, -7.59)" filter="url(#h)"><path d="M14.552,0A23.814,23.814,0,0,0,0,6.027L14.552,20.579Z" transform="translate(17.51 7.59)" fill="url(#a)"/></g></g></svg>