<svg xmlns="http://www.w3.org/2000/svg" xmlns:xlink="http://www.w3.org/1999/xlink" width="66.889" height="66.886" viewBox="0 0 66.889 66.886"><defs><linearGradient id="a" x1="0.5" x2="0.5" y2="1" gradientUnits="objectBoundingBox"><stop offset="0" stop-color="#6d6d8a"/><stop offset="1" stop-color="#37374a"/></linearGradient><filter id="b" x="0" y="20.655" width="66.889" height="35.721" filterUnits="userSpaceOnUse"><feOffset dy="1.852" input="SourceAlpha"/><feGaussianBlur stdDeviation="3.148" result="c"/><feFlood flood-opacity="0.059"/><feComposite operator="in" in2="c"/><feComposite in="SourceGraphic"/></filter><filter id="e" x="0.001" y="30.94" width="66.886" height="35.945" filterUnits="userSpaceOnUse"><feOffset dy="1.852" input="SourceAlpha"/><feGaussianBlur stdDeviation="3.148" result="f"/><feFlood flood-opacity="0.059"/><feComposite operator="in" in2="f"/><feComposite in="SourceGraphic"/></filter><filter id="h" x="0" y="0" width="66.889" height="46.092" filterUnits="userSpaceOnUse"><feOffset dy="1.852" input="SourceAlpha"/><feGaussianBlur stdDeviation="3.148" result="i"/><feFlood flood-opacity="0.059"/><feComposite operator="in" in2="i"/><feComposite in="SourceGraphic"/></filter></defs><g transform="translate(9.445 7.591)"><g transform="matrix(1, 0, 0, 1, -9.44, -7.59)" filter="url(#b)"><path d="M47.248,22.579a1.7,1.7,0,0,0-.15-.09l-3.406-1.834-18.89,10a1.714,1.714,0,0,1-1.6,0l-18.89-10L.9,22.489a1.7,1.7,0,0,0-.614,2.445L24,37.488,47.712,24.934A1.7,1.7,0,0,0,47.248,22.579Z" transform="translate(9.44 7.59)" fill="url(#a)"/></g><g transform="matrix(1, 0, 0, 1, -9.44, -7.59)" filter="url(#e)"><path d="M47.793,33.469a1.714,1.714,0,0,0-.694-.694L43.692,30.94l-18.89,10a1.714,1.714,0,0,1-1.6,0l-18.89-10L.9,32.775a1.714,1.714,0,0,0,0,3.017l22.286,12a1.714,1.714,0,0,0,1.625,0l22.286-12A1.714,1.714,0,0,0,47.793,33.469Z" transform="translate(9.44 7.59)" fill="url(#a)"/></g><g transform="matrix(1, 0, 0, 1, -9.44, -7.59)" filter="url(#h)"><path d="M47.248,12.295a1.7,1.7,0,0,0-.15-.09L24.813.2a1.714,1.714,0,0,0-1.625,0L.9,12.2a1.7,1.7,0,0,0-.614,2.445L24,27.2,47.712,14.649A1.7,1.7,0,0,0,47.248,12.295Z" transform="translate(9.44 7.59)" fill="url(#a)"/></g></g></svg>