<svg xmlns="http://www.w3.org/2000/svg" xmlns:xlink="http://www.w3.org/1999/xlink" width="48.504" height="66.89" viewBox="0 0 48.504 66.89"><defs><linearGradient id="a" x1="0.5" x2="0.5" y2="1" gradientUnits="objectBoundingBox"><stop offset="0" stop-color="#6d6d8a"/><stop offset="1" stop-color="#37374a"/></linearGradient><filter id="b" x="0" y="0" width="48.504" height="53.446" filterUnits="userSpaceOnUse"><feOffset dy="1.852" input="SourceAlpha"/><feGaussianBlur stdDeviation="3.148" result="c"/><feFlood flood-opacity="0.059"/><feComposite operator="in" in2="c"/><feComposite in="SourceGraphic"/></filter><filter id="e" x="7.447" y="36.226" width="33.609" height="21.701" filterUnits="userSpaceOnUse"><feOffset dy="1.852" input="SourceAlpha"/><feGaussianBlur stdDeviation="3.148" result="f"/><feFlood flood-opacity="0.059"/><feComposite operator="in" in2="f"/><feComposite in="SourceGraphic"/></filter><filter id="h" x="7.447" y="40.707" width="33.609" height="21.701" filterUnits="userSpaceOnUse"><feOffset dy="1.852" input="SourceAlpha"/><feGaussianBlur stdDeviation="3.148" result="i"/><feFlood flood-opacity="0.059"/><feComposite operator="in" in2="i"/><feComposite in="SourceGraphic"/></filter><filter id="k" x="9.638" y="45.188" width="29.227" height="21.701" filterUnits="userSpaceOnUse"><feOffset dy="1.852" input="SourceAlpha"/><feGaussianBlur stdDeviation="3.148" result="l"/><feFlood flood-opacity="0.059"/><feComposite operator="in" in2="l"/><feComposite in="SourceGraphic"/></filter></defs><g transform="translate(0.164 7.686)"><g transform="matrix(1, 0, 0, 1, -0.16, -7.69)" filter="url(#b)"><path d="M20.945,34.558H8.67a1.406,1.406,0,0,1-1.406-1.406,11.829,11.829,0,0,0-3.238-8.112,14.827,14.827,0,0,1,.27-20.592A14.658,14.658,0,0,1,14.779,0h.029A14.833,14.833,0,0,1,29.615,14.857a14.82,14.82,0,0,1-4.06,10.22,11.708,11.708,0,0,0-3.2,8.075A1.407,1.407,0,0,1,20.945,34.558Z" transform="translate(9.44 7.59)" fill="url(#a)"/></g><g transform="matrix(1, 0, 0, 1, -0.16, -7.69)" filter="url(#e)"><path d="M13.314,2.813H1.406A1.406,1.406,0,1,1,1.406,0H13.314a1.406,1.406,0,1,1,0,2.813Z" transform="translate(16.89 43.82)" fill="url(#a)"/></g><g transform="matrix(1, 0, 0, 1, -0.16, -7.69)" filter="url(#h)"><path d="M13.314,2.813H1.406A1.406,1.406,0,0,1,1.406,0H13.314a1.406,1.406,0,0,1,0,2.813Z" transform="translate(16.89 48.3)" fill="url(#a)"/></g><g transform="matrix(1, 0, 0, 1, -0.16, -7.69)" filter="url(#k)"><path d="M8.932,2.813H1.406A1.406,1.406,0,0,1,1.406,0H8.932a1.406,1.406,0,0,1,0,2.813Z" transform="translate(19.08 52.78)" fill="url(#a)"/></g></g></svg>