<svg xmlns="http://www.w3.org/2000/svg" xmlns:xlink="http://www.w3.org/1999/xlink" width="64.802" height="66.889" viewBox="0 0 64.802 66.889"><defs><linearGradient id="a" x1="0.5" x2="0.5" y2="1" gradientUnits="objectBoundingBox"><stop offset="0" stop-color="#6d6d8a"/><stop offset="1" stop-color="#37374a"/></linearGradient><filter id="b" x="0" y="0" width="64.802" height="66.889" filterUnits="userSpaceOnUse"><feOffset dy="1.852" input="SourceAlpha"/><feGaussianBlur stdDeviation="3.148" result="c"/><feFlood flood-opacity="0.059"/><feComposite operator="in" in2="c"/><feComposite in="SourceGraphic"/></filter></defs><g transform="translate(8.401 7.593)"><g transform="matrix(1, 0, 0, 1, -8.4, -7.59)" filter="url(#b)"><path d="M45.118,29.26l-4.334-3.45a17.681,17.681,0,0,0,.1-1.812,17.148,17.148,0,0,0-.1-1.812l4.338-3.452a2.19,2.19,0,0,0,.513-2.756L41.128,8.04a2.073,2.073,0,0,0-2.607-.954l-5.114,2.09a17.46,17.46,0,0,0-3.071-1.814L29.559,1.84A2.1,2.1,0,0,0,27.477,0H18.44a2.093,2.093,0,0,0-2.079,1.824l-.78,5.542A18,18,0,0,0,12.517,9.18l-5.127-2.1A2.113,2.113,0,0,0,4.8,8.022L.289,15.97A2.177,2.177,0,0,0,.8,18.74l4.334,3.45a16.109,16.109,0,0,0,0,3.622L.8,29.264A2.19,2.19,0,0,0,.286,32.02l4.507,7.938a2.069,2.069,0,0,0,2.607.954l5.114-2.09a17.614,17.614,0,0,0,3.069,1.814l.778,5.52A2.1,2.1,0,0,0,18.442,48h9.037a2.1,2.1,0,0,0,2.08-1.824l.78-5.54A18.084,18.084,0,0,0,33.4,38.82l5.127,2.1a2.068,2.068,0,0,0,2.587-.936L45.645,32A2.185,2.185,0,0,0,45.118,29.26ZM22.958,32a8,8,0,1,1,7.858-8A7.938,7.938,0,0,1,22.958,32Z" transform="translate(9.44 7.59)" fill="url(#a)"/></g></g></svg>