<svg xmlns="http://www.w3.org/2000/svg" xmlns:xlink="http://www.w3.org/1999/xlink" width="68.889" height="68.889" viewBox="0 0 68.889 68.889">
  <defs>
    <linearGradient id="linear-gradient" x1="0.5" x2="0.5" y2="1" gradientUnits="objectBoundingBox">
      <stop offset="0" stop-color="#6d6d8a"/>
      <stop offset="1" stop-color="#37374a"/>
    </linearGradient>
    <filter id="Fill" x="0" y="0" width="68.889" height="68.889" filterUnits="userSpaceOnUse">
      <feOffset dy="1.852" input="SourceAlpha"/>
      <feGaussianBlur stdDeviation="3.148" result="blur"/>
      <feFlood flood-opacity="0.059"/>
      <feComposite operator="in" in2="blur"/>
      <feComposite in="SourceGraphic"/>
    </filter>
  </defs>
  <g transform="matrix(1, 0, 0, 1, 0, 0)" filter="url(#Fill)">
    <circle id="Fill-2" data-name="Fill" cx="25" cy="25" r="25" transform="translate(9.44 7.59)" fill="url(#linear-gradient)"/>
  </g>
  <g id="Icon" transform="translate(24.444 22.593)">
    <path id="Vector" d="M6.436,3.96H4.653A7.862,7.862,0,0,1,9.9,1.98a2.741,2.741,0,0,1,.891.1.983.983,0,0,0,1.089-.891A.983.983,0,0,0,10.99.1,4.061,4.061,0,0,0,9.9,0,10.111,10.111,0,0,0,3.465,2.376V.99A.935.935,0,0,0,2.475,0a.935.935,0,0,0-.99.99V4.95a.935.935,0,0,0,.99.99h3.96a.935.935,0,0,0,.99-.99A.935.935,0,0,0,6.436,3.96ZM4.95,12.376a.935.935,0,0,0-.99.99v1.782A7.862,7.862,0,0,1,1.98,9.9a2.741,2.741,0,0,1,.1-.891.983.983,0,0,0-.891-1.089A.983.983,0,0,0,.1,8.812,4.061,4.061,0,0,0,0,9.9a10.111,10.111,0,0,0,2.376,6.436H.99a.99.99,0,0,0,0,1.98H4.95a1.222,1.222,0,0,0,.792-.4c0-.1.1-.2.1-.3V13.366A.819.819,0,0,0,4.95,12.376ZM18.812,3.465a.935.935,0,0,0,.99-.99.935.935,0,0,0-.99-.99H14.653c-.1,0-.2.1-.3.1-.1.1-.2.1-.2.2a.346.346,0,0,1-.1.2V6.238a.99.99,0,0,0,1.98,0V4.653A7.68,7.68,0,0,1,18.02,9.9a2.741,2.741,0,0,1-.1.891.983.983,0,0,0,.891,1.089h.1a1.053,1.053,0,0,0,.99-.891c0-.4.1-.693.1-1.089a10.111,10.111,0,0,0-2.376-6.436Zm-.693,10.891-.3-.3a.364.364,0,0,0-.3-.1H13.366a.99.99,0,0,0,0,1.98h1.782A7.68,7.68,0,0,1,9.9,17.921a2.741,2.741,0,0,1-.891-.1.983.983,0,0,0-1.089.891A.936.936,0,0,0,8.812,19.8c.4,0,.693.1,1.089.1a10.111,10.111,0,0,0,6.436-2.376v1.287a.99.99,0,0,0,1.98,0v-3.96A.756.756,0,0,0,18.119,14.356Z" transform="translate(0.001 0.049)" fill="#333363"/>
  </g>
</svg>
