<svg xmlns="http://www.w3.org/2000/svg" width="111.565" height="28.554" viewBox="0 0 111.565 28.554">
  <g id="slack" transform="translate(0)">
    <g id="Group">
      <path id="Vector" d="M10.449,0a2.849,2.849,0,1,0,0,5.7H13.3V2.851A2.852,2.852,0,0,0,10.449,0h0Zm0,7.6H2.85a2.85,2.85,0,0,0,0,5.7h7.6a2.85,2.85,0,1,0,0-5.7Z" transform="translate(0 0.055)" fill="#4f5179"/>
      <path id="Vector-2" data-name="Vector" d="M13.3,10.449a2.85,2.85,0,0,0-5.7,0V13.3h2.85A2.85,2.85,0,0,0,13.3,10.449Zm-7.6,0v-7.6a2.85,2.85,0,0,0-5.7,0v7.6a2.85,2.85,0,1,0,5.7,0Z" transform="translate(15.2 0.055)" fill="#4f5179"/>
      <path id="Vector-3" data-name="Vector" d="M2.85,13.3a2.849,2.849,0,1,0,0-5.7H0v2.849A2.852,2.852,0,0,0,2.85,13.3Zm0-7.6h7.6a2.85,2.85,0,0,0,0-5.7h-7.6a2.85,2.85,0,0,0,0,5.7Z" transform="translate(15.199 15.253)" fill="#4f5179"/>
      <path id="Vector-4" data-name="Vector" d="M0,2.849a2.85,2.85,0,0,0,5.7,0V0H2.85A2.85,2.85,0,0,0,0,2.849Zm7.6,0v7.6a2.85,2.85,0,1,0,5.7,0v-7.6a2.85,2.85,0,0,0-5.7,0Z" transform="translate(0 15.254)" fill="#4f5179"/>
    </g>
    <path id="slack-2" data-name="slack" d="M0,20.692l2.7-1.573a5.393,5.393,0,0,0,4.631,2.612,3.921,3.921,0,0,0,2.2-.534,1.72,1.72,0,0,0,.831-1.484,1.662,1.662,0,0,0-.683-1.306,4.423,4.423,0,0,0-1.4-.831q-.742-.3-2.227-.772-.267-.089-.386-.119Q4.6,16.328,3.859,16a11.937,11.937,0,0,1-1.514-.92,3.906,3.906,0,0,1-1.217-1.455,4.793,4.793,0,0,1-.416-2.048,4.251,4.251,0,0,1,1.9-3.622,7.878,7.878,0,0,1,4.72-1.366,7.576,7.576,0,0,1,3.978,1.128,7.2,7.2,0,0,1,2.791,2.82l-2.494,1.514a5.136,5.136,0,0,0-4.245-2.4,3.425,3.425,0,0,0-2.108.564,1.693,1.693,0,0,0-.712,1.425,1.807,1.807,0,0,0,.623,1.336A4.649,4.649,0,0,0,6.5,13.8q.683.267,1.93.683a4.836,4.836,0,0,1,.475.148q5.284,1.692,5.284,5.106a4.523,4.523,0,0,1-1.781,3.592,7.607,7.607,0,0,1-4.987,1.455,8.949,8.949,0,0,1-4.453-1.1A7.587,7.587,0,0,1,0,20.692Z" transform="translate(36.872)" fill="#4f5179"/>
    <path id="slack-3" data-name="slack" d="M17.456,24.255V0H21.2V24.255Z" transform="translate(36.872)" fill="#4f5179"/>
    <path id="slack-4" data-name="slack" d="M28.381,19.445a2.054,2.054,0,0,0,.742,1.6,3.114,3.114,0,0,0,2.019.623,4.229,4.229,0,0,0,3.028-1.187,4.058,4.058,0,0,0,1.277-3.117V15.794q-1.366.327-3.3.623Q28.381,17.011,28.381,19.445Zm-3.8.327q0-4.839,7.184-5.908a28.7,28.7,0,0,0,3.681-.712v-.92a2.372,2.372,0,0,0-.891-1.959,3.692,3.692,0,0,0-2.375-.712,6.3,6.3,0,0,0-4.869,2.316L25.027,9.916A9.287,9.287,0,0,1,28.2,7.481a9.007,9.007,0,0,1,3.919-.891q3.83,0,5.462,1.87a7.523,7.523,0,0,1,1.633,5.166V24.255H35.566V22.117a4.638,4.638,0,0,1-1.87,1.9,5.959,5.959,0,0,1-3.087.772,6.514,6.514,0,0,1-4.423-1.4A4.577,4.577,0,0,1,24.581,19.772Z" transform="translate(36.872)" fill="#4f5179"/>
    <path id="slack-5" data-name="slack" d="M42.1,15.7a9.651,9.651,0,0,1,2.2-6.62,7.331,7.331,0,0,1,5.73-2.494,6.278,6.278,0,0,1,4.3,1.544,6.6,6.6,0,0,1,2.2,3.533l-3.206.891a4.4,4.4,0,0,0-1.217-1.93A2.848,2.848,0,0,0,50.053,9.8a3.43,3.43,0,0,0-3.028,1.692A7.751,7.751,0,0,0,45.956,15.7a7.1,7.1,0,0,0,1.158,4.334,3.532,3.532,0,0,0,2.939,1.544,3.292,3.292,0,0,0,2.286-.891,4.9,4.9,0,0,0,1.4-2.078l3.206.92a7.3,7.3,0,0,1-2.464,3.681,6.768,6.768,0,0,1-4.453,1.573,7.371,7.371,0,0,1-5.73-2.464A9.651,9.651,0,0,1,42.1,15.7Z" transform="translate(36.872)" fill="#4f5179"/>
    <path id="slack-6" data-name="slack" d="M59.761,24.255V0H63.5V13.953l6.086-6.828h4.72L67.984,14.1l6.709,10.153H70.3l-4.75-7.511L63.5,19v5.255Z" transform="translate(36.872)" fill="#4f5179"/>
  </g>
</svg>
